<?xml version="1.0" standalone="no"?>
<!DOCTYPE svg PUBLIC "-//W3C//DTD SVG 20010904//EN"
 "http://www.w3.org/TR/2001/REC-SVG-20010904/DTD/svg10.dtd">
<svg version="1.0" xmlns="http://www.w3.org/2000/svg"
 width="1320.000000pt" height="1320.000000pt" viewBox="0 0 1320.000000 1320.000000"
 preserveAspectRatio="xMidYMid meet">
<metadata>
Created by potrace 1.14, written by Peter Selinger 2001-2017
</metadata>
<g transform="translate(0.000000,1320.000000) scale(0.100000,-0.100000)"
fill="#000000" stroke="none">
<path d="M2809 13196 c-2 -2 -40 -6 -84 -10 -44 -3 -91 -8 -105 -10 -14 -3
-45 -7 -70 -10 -25 -3 -56 -8 -70 -11 -14 -3 -47 -9 -75 -15 -317 -61 -666
-197 -951 -370 -61 -37 -140 -89 -175 -114 -35 -25 -75 -54 -89 -63 -128 -92
-356 -309 -486 -463 -74 -88 -232 -303 -242 -330 -3 -8 -8 -17 -12 -20 -13
-11 -123 -214 -170 -315 -58 -125 -149 -363 -165 -435 0 -3 -13 -54 -28 -115
-14 -60 -29 -125 -32 -144 -3 -19 -8 -37 -10 -41 -2 -3 -7 -37 -10 -75 -4 -39
-9 -73 -10 -76 -2 -3 -8 -43 -12 -90 -10 -106 -11 -7656 0 -7764 11 -119 34
-262 63 -393 26 -121 115 -400 154 -487 125 -278 212 -430 363 -635 39 -52 73
-97 76 -100 3 -3 31 -34 61 -70 145 -173 395 -395 590 -524 172 -114 181 -119
365 -210 288 -142 563 -228 870 -272 17 -3 39 -6 50 -9 81 -17 637 -20 4000
-20 3335 0 3895 3 3981 19 10 2 55 9 99 16 472 70 1014 310 1381 611 23 19 61
50 84 68 59 48 254 243 320 320 259 302 457 652 579 1023 36 109 82 283 95
361 3 15 7 35 10 45 3 9 8 40 11 67 33 265 33 224 31 4110 -1 2107 -4 3841 -8
3855 -4 14 -12 68 -18 120 -7 52 -18 122 -25 155 -8 33 -16 71 -18 85 -11 56
-40 162 -79 280 -205 629 -629 1185 -1183 1555 -146 97 -354 210 -480 262 -17
7 -51 21 -76 31 -78 34 -289 101 -399 127 -91 22 -174 37 -390 71 -46 8 -7703
17 -7711 10z"/>
</g>
</svg>
