<svg width="473" height="631" viewBox="0 0 473 631" fill="none" xmlns="http://www.w3.org/2000/svg">
<rect y="1.50003" width="474.705" height="343.771" rx="22.5" transform="matrix(0.86602 0.500009 -0.86602 0.500009 301.61 -351.963)" stroke="#96DCEB" stroke-opacity="0.5" stroke-width="3"/>
<rect y="1.50003" width="474.705" height="343.771" rx="22.5" transform="matrix(0.86602 0.500009 -0.86602 0.500009 301.61 -288.543)" stroke="#96DCEB" stroke-opacity="0.5" stroke-width="3"/>
<rect y="1.50003" width="474.705" height="343.771" rx="22.5" transform="matrix(0.86602 0.500009 -0.86602 0.500009 301.61 -225.121)" stroke="#96DCEB" stroke-opacity="0.5" stroke-width="3"/>
<rect y="1.50003" width="474.705" height="343.771" rx="22.5" transform="matrix(0.86602 0.500009 -0.86602 0.500009 301.61 -161.699)" stroke="#96DCEB" stroke-opacity="0.5" stroke-width="3"/>
<rect y="1.50003" width="474.705" height="343.771" rx="22.5" transform="matrix(0.86602 0.500009 -0.86602 0.500009 301.61 -98.2793)" stroke="#96DCEB" stroke-opacity="0.5" stroke-width="3"/>
<rect y="1.50003" width="474.705" height="343.771" rx="22.5" transform="matrix(0.86602 0.500009 -0.86602 0.500009 301.61 -34.8574)" stroke="#96DCEB" stroke-opacity="0.5" stroke-width="3"/>
<rect y="1.50003" width="474.705" height="343.771" rx="22.5" transform="matrix(0.86602 0.500009 -0.86602 0.500009 301.61 28.5645)" stroke="#96DCEB" stroke-opacity="0.5" stroke-width="3"/>
<rect y="1.50003" width="474.705" height="343.771" rx="22.5" transform="matrix(0.86602 0.500009 -0.86602 0.500009 301.61 91.9844)" stroke="#96DCEB" stroke-opacity="0.5" stroke-width="3"/>
<rect y="1.50003" width="474.705" height="343.771" rx="22.5" transform="matrix(0.86602 0.500009 -0.86602 0.500009 301.61 155.406)" stroke="#96DCEB" stroke-opacity="0.5" stroke-width="3"/>
<rect y="1.50003" width="474.705" height="343.771" rx="22.5" transform="matrix(0.86602 0.500009 -0.86602 0.500009 301.61 218.826)" stroke="#96DCEB" stroke-opacity="0.5" stroke-width="3"/>
</svg>
