<svg width="521" height="557" viewBox="0 0 521 557" fill="none" xmlns="http://www.w3.org/2000/svg">
<rect y="1.50003" width="474.705" height="343.771" rx="22.5" transform="matrix(0.86602 0.500009 -0.86602 0.500009 107.61 0.75)" stroke="#96DCEB" stroke-opacity="0.5" stroke-width="3"/>
<rect y="1.50003" width="474.705" height="343.771" rx="22.5" transform="matrix(0.86602 0.500009 -0.86602 0.500009 107.61 65.1934)" stroke="#96DCEB" stroke-opacity="0.5" stroke-width="3"/>
<rect y="1.50003" width="474.705" height="343.771" rx="22.5" transform="matrix(0.86602 0.500009 -0.86602 0.500009 107.61 128.615)" stroke="#96DCEB" stroke-opacity="0.5" stroke-width="3"/>
<rect y="1.50003" width="474.705" height="343.771" rx="22.5" transform="matrix(0.86602 0.500009 -0.86602 0.500009 107.61 192.037)" stroke="#96DCEB" stroke-opacity="0.5" stroke-width="3"/>
<rect y="1.50003" width="474.705" height="343.771" rx="22.5" transform="matrix(0.86602 0.500009 -0.86602 0.500009 107.61 255.457)" stroke="#96DCEB" stroke-opacity="0.5" stroke-width="3"/>
<rect y="1.50003" width="474.705" height="343.771" rx="22.5" transform="matrix(0.86602 0.500009 -0.86602 0.500009 107.61 318.879)" stroke="#96DCEB" stroke-opacity="0.5" stroke-width="3"/>
<rect y="1.50003" width="474.705" height="343.771" rx="22.5" transform="matrix(0.86602 0.500009 -0.86602 0.500009 107.61 382.301)" stroke="#96DCEB" stroke-opacity="0.5" stroke-width="3"/>
<rect y="1.50003" width="474.705" height="343.771" rx="22.5" transform="matrix(0.86602 0.500009 -0.86602 0.500009 107.61 445.721)" stroke="#96DCEB" stroke-opacity="0.5" stroke-width="3"/>
<rect y="1.50003" width="474.705" height="343.771" rx="22.5" transform="matrix(0.86602 0.500009 -0.86602 0.500009 107.61 509.143)" stroke="#96DCEB" stroke-opacity="0.5" stroke-width="3"/>
</svg>
