<svg width="244" height="68" viewBox="0 0 244 68" fill="none" xmlns="http://www.w3.org/2000/svg">
<path d="M198.333 25.6667V44.3333H179.667V25.6667H198.333ZM201 23H177V47H201V23ZM195.667 41.6667H182.333V40.3333H195.667V41.6667ZM195.667 39H182.333V37.6667H195.667V39ZM195.667 35H182.333V28.3333H195.667V35Z" fill="#1E3040"/>
<rect x="2" y="2" width="240" height="64" rx="32" stroke="#1E3040" stroke-width="3"/>
<path d="M54.271 26.198C55.95 29.349 58.595 32.983 60.757 35.306C61.286 34.547 62.344 33.489 63.057 32.914C60.964 30.982 58.342 27.762 57.008 25.071L54.271 26.198ZM47.808 25.025C46.612 28.222 44.45 31.373 42.081 33.236C42.794 33.673 44.151 34.708 44.703 35.283C47.049 33.098 49.464 29.533 50.936 25.922L47.808 25.025ZM54.662 37.928C55.513 39.055 56.433 40.366 57.261 41.654C54.593 41.792 51.902 41.93 49.418 42.045C50.821 39.561 52.316 36.479 53.512 33.65L50.223 32.891C49.349 35.766 47.762 39.446 46.29 42.183L43.093 42.298L43.461 45.173C47.509 44.989 53.305 44.644 58.825 44.276C59.216 44.943 59.538 45.564 59.768 46.116L62.62 44.621C61.493 42.413 59.331 39.17 57.33 36.686L54.662 37.928ZM72.303 36.364H75.983V33.719H66.116V36.364H69.589V41.907C67.933 42.183 66.415 42.413 65.242 42.597L66.001 45.357C68.968 44.713 73.016 43.885 76.788 43.057L76.581 40.619C75.178 40.895 73.706 41.171 72.303 41.424V36.364ZM85.804 31.097V28.429H83.642L85.206 27.072C84.585 26.313 83.228 25.232 82.193 24.519L80.376 26.014C81.296 26.704 82.446 27.647 83.067 28.429H79.433C79.387 27.187 79.387 25.899 79.41 24.634H76.466C76.466 25.899 76.489 27.187 76.535 28.429H65.242V31.097H76.673C77.225 39.193 78.95 46.001 82.883 46.001C85.068 46.001 85.988 44.943 86.402 40.596C85.643 40.297 84.631 39.63 84.01 38.986C83.895 41.907 83.619 43.126 83.136 43.126C81.457 43.126 80.054 37.813 79.571 31.097H85.804ZM104.457 24.611L102.571 25.393C103.008 26.06 103.468 26.865 103.859 27.624C103.445 27.67 103.054 27.67 102.778 27.67H92.129C91.37 27.67 90.059 27.578 89.392 27.486V30.729C89.99 30.683 91.071 30.637 92.129 30.637H102.824C102.525 32.615 101.651 35.214 100.133 37.123C98.27 39.469 95.671 41.47 91.117 42.528L93.624 45.288C97.741 43.954 100.8 41.677 102.87 38.917C104.802 36.364 105.791 32.799 106.343 30.545C106.458 30.062 106.619 29.395 106.849 28.958L105.377 27.992L106.228 27.647C105.814 26.819 105.055 25.485 104.457 24.611ZM107.677 24.036L105.768 24.795C106.389 25.646 107.102 26.957 107.608 27.9L109.517 27.072C109.08 26.267 108.252 24.864 107.677 24.036ZM112.898 27.693C112.944 28.337 112.944 29.28 112.944 29.924V41.171C112.944 42.275 112.875 44.276 112.875 44.391H116.049C116.049 44.322 116.049 43.793 116.026 43.149H127.112C127.112 43.816 127.089 44.345 127.089 44.391H130.263C130.263 44.299 130.217 42.091 130.217 41.194V29.924C130.217 29.234 130.217 28.383 130.263 27.693C129.435 27.739 128.561 27.739 127.986 27.739H115.336C114.715 27.739 113.841 27.716 112.898 27.693ZM116.026 30.66H127.135V40.205H116.026V30.66ZM150.917 25.163L149.1 25.899C149.675 26.727 150.319 27.946 150.779 28.866L150.618 28.774C150.112 28.935 149.33 29.05 148.617 29.05H144.017C144.04 29.004 144.063 28.981 144.086 28.935C144.339 28.429 144.937 27.394 145.489 26.589L142.108 25.485C141.901 26.267 141.418 27.325 141.073 27.877C139.946 29.855 137.922 32.845 133.897 35.283L136.473 37.215C138.75 35.674 140.751 33.65 142.292 31.649H148.755C148.387 33.351 147.053 36.134 145.489 37.905C143.465 40.205 140.912 42.206 136.22 43.609L138.934 46.047C143.258 44.322 146.018 42.229 148.203 39.538C150.296 36.985 151.607 33.926 152.228 31.879C152.412 31.304 152.734 30.66 152.987 30.223L151.032 29.027L152.734 28.314C152.32 27.463 151.492 25.991 150.917 25.163ZM153.631 24.128L151.814 24.864C152.458 25.738 153.194 27.072 153.677 28.038L155.494 27.256C155.08 26.451 154.229 24.979 153.631 24.128Z" fill="#1E3040"/>
</svg>
