<svg width="159" height="68" viewBox="0 0 159 68" fill="none" xmlns="http://www.w3.org/2000/svg">
<rect x="2" y="2" width="155" height="64" rx="32" stroke="#96DCEB" stroke-width="3"/>
<path d="M48.4437 43C48.2677 43 48.1237 42.952 48.0117 42.856C47.8997 42.744 47.8437 42.6 47.8437 42.424V26.8C47.8437 26.624 47.8997 26.48 48.0117 26.368C48.1237 26.256 48.2677 26.2 48.4437 26.2H50.3397C50.6757 26.2 50.9157 26.352 51.0597 26.656L55.6917 35.296L60.3717 26.656C60.5317 26.352 60.7717 26.2 61.0917 26.2H62.9637C63.1397 26.2 63.2837 26.256 63.3957 26.368C63.5077 26.48 63.5637 26.624 63.5637 26.8V42.424C63.5637 42.6 63.5077 42.744 63.3957 42.856C63.2837 42.952 63.1397 43 62.9637 43H60.9477C60.7877 43 60.6517 42.944 60.5397 42.832C60.4277 42.72 60.3717 42.584 60.3717 42.424V32.032L57.0117 38.44C56.8037 38.792 56.5317 38.968 56.1957 38.968H55.2117C54.8757 38.968 54.6037 38.792 54.3957 38.44L51.0357 32.032V42.424C51.0357 42.584 50.9797 42.72 50.8677 42.832C50.7717 42.944 50.6357 43 50.4597 43H48.4437ZM73.7528 43.24C71.5768 43.24 69.8808 42.688 68.6648 41.584C67.4488 40.48 66.8088 38.84 66.7448 36.664C66.7288 36.2 66.7208 35.52 66.7208 34.624C66.7208 33.712 66.7288 33.024 66.7448 32.56C66.8088 30.432 67.4648 28.8 68.7128 27.664C69.9608 26.528 71.6408 25.96 73.7528 25.96C75.8648 25.96 77.5448 26.528 78.7928 27.664C80.0568 28.8 80.7208 30.432 80.7848 32.56C80.8168 33.488 80.8328 34.176 80.8328 34.624C80.8328 35.056 80.8168 35.736 80.7848 36.664C80.7048 38.84 80.0568 40.48 78.8408 41.584C77.6248 42.688 75.9288 43.24 73.7528 43.24ZM73.7528 40.48C74.8248 40.48 75.6808 40.16 76.3208 39.52C76.9608 38.864 77.3048 37.872 77.3528 36.544C77.3848 35.584 77.4008 34.936 77.4008 34.6C77.4008 34.232 77.3848 33.584 77.3528 32.656C77.3048 31.328 76.9608 30.344 76.3208 29.704C75.6808 29.048 74.8248 28.72 73.7528 28.72C72.6968 28.72 71.8488 29.048 71.2088 29.704C70.5688 30.344 70.2248 31.328 70.1768 32.656C70.1608 33.12 70.1528 33.768 70.1528 34.6C70.1528 35.416 70.1608 36.064 70.1768 36.544C70.2248 37.872 70.5608 38.864 71.1848 39.52C71.8248 40.16 72.6808 40.48 73.7528 40.48ZM84.5603 43C84.4003 43 84.2643 42.944 84.1523 42.832C84.0403 42.72 83.9843 42.584 83.9843 42.424V26.8C83.9843 26.624 84.0323 26.48 84.1283 26.368C84.2403 26.256 84.3843 26.2 84.5603 26.2H90.7763C92.7283 26.2 94.2563 26.656 95.3603 27.568C96.4803 28.48 97.0403 29.776 97.0403 31.456C97.0403 32.624 96.7523 33.608 96.1763 34.408C95.6163 35.192 94.8323 35.76 93.8243 36.112L97.3283 42.232C97.3763 42.328 97.4003 42.416 97.4003 42.496C97.4003 42.64 97.3443 42.76 97.2323 42.856C97.1363 42.952 97.0243 43 96.8963 43H94.7123C94.4563 43 94.2563 42.944 94.1123 42.832C93.9843 42.72 93.8643 42.56 93.7523 42.352L90.6563 36.664H87.3203V42.424C87.3203 42.584 87.2643 42.72 87.1523 42.832C87.0563 42.944 86.9203 43 86.7443 43H84.5603ZM90.7043 33.952C91.6643 33.952 92.3843 33.736 92.8643 33.304C93.3603 32.872 93.6083 32.248 93.6083 31.432C93.6083 30.616 93.3603 29.984 92.8643 29.536C92.3843 29.088 91.6643 28.864 90.7043 28.864H87.3203V33.952H90.7043ZM100.709 43C100.549 43 100.413 42.944 100.301 42.832C100.189 42.72 100.133 42.584 100.133 42.424V26.8C100.133 26.624 100.181 26.48 100.277 26.368C100.389 26.256 100.533 26.2 100.709 26.2H111.269C111.445 26.2 111.589 26.256 111.701 26.368C111.813 26.48 111.869 26.624 111.869 26.8V28.384C111.869 28.56 111.813 28.704 111.701 28.816C111.589 28.912 111.445 28.96 111.269 28.96H103.373V33.208H110.741C110.917 33.208 111.061 33.264 111.173 33.376C111.285 33.472 111.341 33.608 111.341 33.784V35.272C111.341 35.448 111.285 35.592 111.173 35.704C111.061 35.8 110.917 35.848 110.741 35.848H103.373V40.24H111.461C111.637 40.24 111.781 40.296 111.893 40.408C112.005 40.52 112.061 40.664 112.061 40.84V42.424C112.061 42.6 112.005 42.744 111.893 42.856C111.781 42.952 111.637 43 111.461 43H100.709Z" fill="#96DCEB"/>
</svg>
