<svg width="236" height="68" viewBox="0 0 236 68" fill="none" xmlns="http://www.w3.org/2000/svg">
<rect x="2" y="2" width="232" height="64" rx="32" fill="#1E3040" stroke="#1E3040" stroke-width="3"/>
<path d="M46.448 43C46.288 43 46.152 42.944 46.04 42.832C45.928 42.72 45.872 42.584 45.872 42.424V26.8C45.872 26.624 45.92 26.48 46.016 26.368C46.128 26.256 46.272 26.2 46.448 26.2H52.88C54.8 26.2 56.312 26.656 57.416 27.568C58.52 28.464 59.072 29.784 59.072 31.528C59.072 33.272 58.52 34.592 57.416 35.488C56.328 36.368 54.816 36.808 52.88 36.808H49.304V42.424C49.304 42.584 49.248 42.72 49.136 42.832C49.04 42.944 48.904 43 48.728 43H46.448ZM52.76 34.144C53.688 34.144 54.4 33.928 54.896 33.496C55.392 33.048 55.64 32.392 55.64 31.528C55.64 30.696 55.4 30.048 54.92 29.584C54.44 29.104 53.72 28.864 52.76 28.864H49.256V34.144H52.76ZM62.2683 43C62.1083 43 61.9723 42.944 61.8603 42.832C61.7483 42.72 61.6923 42.584 61.6923 42.424V26.776C61.6923 26.6 61.7483 26.464 61.8603 26.368C61.9723 26.256 62.1083 26.2 62.2683 26.2H64.5003C64.6763 26.2 64.8123 26.256 64.9083 26.368C65.0203 26.464 65.0763 26.6 65.0763 26.776V40.144H72.6843C72.8603 40.144 73.0043 40.2 73.1163 40.312C73.2283 40.424 73.2843 40.568 73.2843 40.744V42.424C73.2843 42.6 73.2283 42.744 73.1163 42.856C73.0043 42.952 72.8603 43 72.6843 43H62.2683ZM74.5822 43C74.4542 43 74.3342 42.952 74.2222 42.856C74.1262 42.76 74.0782 42.64 74.0782 42.496L74.1262 42.28L79.9102 26.8C80.0222 26.4 80.3022 26.2 80.7502 26.2H83.3662C83.7822 26.2 84.0622 26.4 84.2062 26.8L89.9902 42.28C90.0062 42.328 90.0142 42.4 90.0142 42.496C90.0142 42.64 89.9662 42.76 89.8702 42.856C89.7742 42.952 89.6622 43 89.5342 43H87.4462C87.2382 43 87.0782 42.952 86.9662 42.856C86.8542 42.76 86.7822 42.656 86.7502 42.544L85.6222 39.616H78.4942L77.3662 42.544C77.2382 42.848 77.0062 43 76.6702 43H74.5822ZM84.7822 36.856L82.0462 29.44L79.3342 36.856H84.7822ZM95.4187 43C95.2587 43 95.1227 42.944 95.0107 42.832C94.8987 42.72 94.8427 42.584 94.8427 42.424V37L89.1787 26.968C89.1307 26.888 89.1067 26.8 89.1067 26.704C89.1067 26.56 89.1547 26.44 89.2507 26.344C89.3467 26.248 89.4587 26.2 89.5867 26.2H91.7227C91.8987 26.2 92.0427 26.248 92.1547 26.344C92.2827 26.44 92.3787 26.544 92.4427 26.656L96.5227 33.64L100.579 26.656C100.771 26.352 101.019 26.2 101.323 26.2H103.435C103.579 26.2 103.699 26.248 103.795 26.344C103.891 26.44 103.939 26.56 103.939 26.704C103.939 26.8 103.915 26.888 103.867 26.968L98.2027 37V42.424C98.2027 42.584 98.1467 42.72 98.0347 42.832C97.9227 42.944 97.7787 43 97.6027 43H95.4187ZM111.721 43C111.561 43 111.425 42.944 111.313 42.832C111.201 42.72 111.145 42.584 111.145 42.424V26.8C111.145 26.624 111.193 26.48 111.289 26.368C111.401 26.256 111.545 26.2 111.721 26.2H113.569C113.761 26.2 113.905 26.24 114.001 26.32C114.097 26.384 114.185 26.472 114.265 26.584L121.177 37.336V26.8C121.177 26.624 121.225 26.48 121.321 26.368C121.433 26.256 121.577 26.2 121.753 26.2H123.769C123.945 26.2 124.089 26.256 124.201 26.368C124.313 26.48 124.369 26.624 124.369 26.8V42.4C124.369 42.576 124.313 42.72 124.201 42.832C124.089 42.944 123.953 43 123.793 43H121.921C121.649 43 121.417 42.872 121.225 42.616L114.337 32.104V42.424C114.337 42.6 114.281 42.744 114.169 42.856C114.057 42.952 113.913 43 113.737 43H111.721ZM134.57 43.24C132.394 43.24 130.698 42.688 129.482 41.584C128.266 40.48 127.626 38.84 127.562 36.664C127.546 36.2 127.538 35.52 127.538 34.624C127.538 33.712 127.546 33.024 127.562 32.56C127.626 30.432 128.282 28.8 129.53 27.664C130.778 26.528 132.458 25.96 134.57 25.96C136.682 25.96 138.362 26.528 139.61 27.664C140.874 28.8 141.538 30.432 141.602 32.56C141.634 33.488 141.65 34.176 141.65 34.624C141.65 35.056 141.634 35.736 141.602 36.664C141.522 38.84 140.874 40.48 139.658 41.584C138.442 42.688 136.746 43.24 134.57 43.24ZM134.57 40.48C135.642 40.48 136.498 40.16 137.138 39.52C137.778 38.864 138.122 37.872 138.17 36.544C138.202 35.584 138.218 34.936 138.218 34.6C138.218 34.232 138.202 33.584 138.17 32.656C138.122 31.328 137.778 30.344 137.138 29.704C136.498 29.048 135.642 28.72 134.57 28.72C133.514 28.72 132.666 29.048 132.026 29.704C131.386 30.344 131.042 31.328 130.994 32.656C130.978 33.12 130.97 33.768 130.97 34.6C130.97 35.416 130.978 36.064 130.994 36.544C131.042 37.872 131.378 38.864 132.002 39.52C132.642 40.16 133.498 40.48 134.57 40.48ZM147.374 43C147.134 43 146.942 42.936 146.798 42.808C146.654 42.68 146.566 42.504 146.534 42.28L143.678 26.896L143.654 26.704C143.654 26.56 143.702 26.44 143.798 26.344C143.91 26.248 144.03 26.2 144.158 26.2H146.27C146.67 26.2 146.894 26.36 146.942 26.68L148.934 37.552L151.094 30.52C151.254 30.12 151.518 29.92 151.886 29.92H153.182C153.582 29.92 153.838 30.12 153.95 30.52L156.134 37.528L158.126 26.68C158.158 26.504 158.222 26.384 158.318 26.32C158.43 26.24 158.59 26.2 158.798 26.2H160.91C161.038 26.2 161.15 26.248 161.246 26.344C161.342 26.44 161.39 26.56 161.39 26.704C161.39 26.784 161.382 26.848 161.366 26.896L158.51 42.28C158.43 42.76 158.15 43 157.67 43H156.062C155.838 43 155.654 42.944 155.51 42.832C155.366 42.72 155.27 42.576 155.222 42.4L152.534 34.384L149.846 42.4C149.686 42.8 149.398 43 148.982 43H147.374Z" fill="#EFF1F5"/>
<path d="M190.94 25.2744C190.421 24.755 189.579 24.755 189.059 25.2744C188.54 25.7935 188.54 26.6349 189.058 27.1544L195.56 33.6673H180.666C179.93 33.6673 179.333 34.2643 179.333 35.0007C179.333 35.737 179.93 36.334 180.666 36.334H195.56L189.058 42.8469C188.54 43.3664 188.54 44.2078 189.059 44.7269C189.579 45.2463 190.421 45.2463 190.94 44.7269L199.252 36.4149C200.033 35.6338 200.033 34.3675 199.252 33.5864L190.94 25.2744Z" fill="#EFF1F5"/>
</svg>
