<svg width="180" height="52" viewBox="0 0 180 52" fill="none" xmlns="http://www.w3.org/2000/svg">
<g clip-path="url(#clip0_660:7)">
<path d="M46.2608 34.9825L40.6943 36.3737C38.3817 39.6173 35.0525 42.0006 31.2318 43.1476C27.4111 44.2946 23.3164 44.1401 19.5935 42.7084L22.589 39.6283C26.1423 40.5318 29.9086 40.0176 33.0879 38.1949C36.2672 36.3723 38.6088 33.3848 39.6155 29.8672L47.2421 32.3461C46.9704 33.2435 46.6426 34.1231 46.2608 34.9796V34.9825ZM52.0683 27.7204C52.1046 27.1479 52.1237 26.5754 52.1256 26.0029C52.1251 24.2883 51.956 22.5778 51.6206 20.8962L47.9537 22.9285C48.099 23.9507 48.1718 24.9819 48.1717 26.0143C48.1717 26.4809 48.1545 26.9418 48.1258 27.3998L40.1434 26.7013C40.1434 26.4694 40.1606 26.2347 40.1606 26C40.1626 22.9399 39.1587 19.9635 37.3028 17.527L36.9413 17.8133C37.8277 18.9866 38.5176 20.2955 38.9842 21.6891L38.5797 21.9038C39.0164 23.2295 39.2392 24.616 39.2396 26.0114C39.2396 26.2204 39.2396 26.4294 39.2224 26.6355L32.6545 26.0487C32.6493 26.5473 32.5877 27.0437 32.4709 27.5286L38.7375 29.5838C37.9533 32.3378 36.2908 34.7617 34.0018 36.4885C31.7128 38.2152 28.922 39.1507 26.0523 39.1531C25.1332 39.1542 24.2166 39.0583 23.3178 38.8669L27.2689 34.805L17.9408 33.6915L17.2407 24.8865L9.43041 32.7383C7.94378 29.0828 7.70826 25.0399 8.76043 21.2372C9.81259 17.4345 12.0936 14.0847 15.2494 11.7076L15.7658 9.70384C18.8454 7.75603 22.4174 6.72342 26.0638 6.72685C26.5171 6.72685 26.9647 6.74403 27.4095 6.77551L28.7781 9.06551C30.8368 9.39301 32.8179 10.0945 34.6229 11.1351L35.3919 10.4109C33.5095 9.28231 31.4364 8.50625 29.2745 8.12088L27.8915 5.79941C27.2794 5.74979 26.6701 5.72498 26.0638 5.72498C22.5818 5.7159 19.1564 6.60325 16.1188 8.30122L16.6926 6.01123C19.6219 4.64243 22.8176 3.93482 26.0523 3.93879C26.7323 3.93879 27.4037 3.97314 28.0608 4.03325L30.098 0.312011C28.7632 0.105702 27.4145 0.00139471 26.0638 0C21.445 0.00170688 16.9097 1.22751 12.9217 3.55198C8.93374 5.87645 5.63637 9.21614 3.36696 13.2293C1.09756 17.2425 -0.0623977 21.7852 0.00576998 26.3924C0.0739377 30.9997 1.36779 35.5062 3.75493 39.4508L1.04918 51.1584L13.0256 48.5163C16.4243 50.4735 20.222 51.64 24.1355 51.9289C28.0491 52.2179 31.9775 51.6218 35.628 50.1852C39.2784 48.7486 42.5568 46.5084 45.2185 43.6318C47.8803 40.7551 49.8569 37.3162 51.0009 33.5713L52.8344 34.1695C53.4577 32.1212 53.8428 30.0082 53.9821 27.8721L52.0625 27.7089L52.0683 27.7204Z" fill="white"/>
<path d="M177.366 30.6024H152.217V17.0457H168.371L177.366 24.2019V30.611V30.6024ZM141.457 41.3282H126.709L120.161 35.0107V33.2331H141.457V41.3282ZM149.571 14.4208V30.6081H144.102V25.1408H94.4003V19.5761H91.7634V41.331H62.3674V27.7657H86.4006V25.1408H62.3674V19.5761H59.7305V43.9559H94.4003V35.6089L102.575 27.7657H141.457V30.5967H117.533V43.9502H144.102V33.2331H149.58V43.9559H152.217V33.2331H180V14.415L149.571 14.4208Z" fill="white"/>
</g>
<defs>
<clipPath id="clip0_660:7">
<rect width="180" height="52" fill="white"/>
</clipPath>
</defs>
</svg>
