<svg width="419" height="59" viewBox="0 0 419 59" fill="none" xmlns="http://www.w3.org/2000/svg">
<g clip-path="url(#clip0)">
<path d="M52.0093 39.6917L45.7509 41.2701C43.1509 44.9504 39.4078 47.6545 35.1122 48.9559C30.8166 50.2573 26.2129 50.082 22.0273 48.4576L25.3952 44.9629C29.3901 45.988 33.6246 45.4045 37.199 43.3365C40.7735 41.2685 43.4062 37.8789 44.538 33.8878L53.1126 36.7004C52.8071 37.7186 52.4386 38.7166 52.0093 39.6884V39.6917ZM58.5386 31.4519C58.5795 30.8024 58.601 30.1528 58.6031 29.5032C58.6026 27.5578 58.4124 25.6172 58.0354 23.7091L53.9126 26.0151C54.076 27.1749 54.1579 28.3448 54.1578 29.5162C54.1578 30.0456 54.1384 30.5685 54.1062 31.0882L45.1316 30.2957C45.1316 30.0326 45.1509 29.7663 45.1509 29.5C45.1531 26.0279 44.0245 22.6509 41.9379 19.8864L41.5314 20.2112C42.528 21.5425 43.3037 23.0276 43.8283 24.6088L43.3734 24.8524C43.8645 26.3565 44.1149 27.9297 44.1154 29.513C44.1154 29.7501 44.1154 29.9872 44.096 30.221L36.7118 29.5552C36.7059 30.121 36.6367 30.6842 36.5054 31.2343L43.5508 33.5663C42.6692 36.691 40.8 39.4412 38.2265 41.4004C35.653 43.3596 32.5153 44.421 29.2889 44.4238C28.2556 44.425 27.2251 44.3161 26.2146 44.099L30.6567 39.4903L20.1691 38.2269L19.382 28.2366L10.6009 37.1454C8.92951 32.9978 8.66472 28.4107 9.84766 24.0961C11.0306 19.7815 13.5951 15.9807 17.1432 13.2836L17.7238 11.0101C21.1862 8.80011 25.2022 7.6285 29.3018 7.63239C29.8115 7.63239 30.3147 7.65188 30.8148 7.6876L32.3535 10.2859C34.6682 10.6575 36.8954 11.4534 38.9248 12.634L39.7894 11.8123C37.6731 10.5319 35.3422 9.65132 32.9116 9.21408L31.3567 6.58009C30.6685 6.5238 29.9835 6.49565 29.3018 6.49565C25.387 6.48535 21.5358 7.49215 18.1206 9.41869L18.7658 6.82043C22.0592 5.26737 25.6522 4.4645 29.2889 4.46901C30.0534 4.46901 30.8083 4.50798 31.5471 4.57619L33.8375 0.354013C32.3367 0.119931 30.8204 0.00158246 29.3018 0C24.109 0.00193665 19.0098 1.39275 14.5262 4.03013C10.0425 6.66751 6.33529 10.4568 3.7838 15.0102C1.23231 19.5637 -0.0718301 24.7178 0.00481078 29.9453C0.0814517 35.1727 1.53612 40.2859 4.21999 44.7615L1.17791 58.0451L14.6431 55.0474C18.4642 57.268 22.7339 58.5915 27.1339 58.9194C31.5339 59.2472 35.9506 58.5709 40.0548 56.9409C44.1591 55.3109 47.8449 52.7692 50.8375 49.5053C53.8301 46.2414 56.0524 42.3395 57.3386 38.0905L59.4 38.7693C60.1008 36.4453 60.5338 34.0478 60.6903 31.6241L58.5322 31.439L58.5386 31.4519Z" fill="#F2F2F2"/>
<path d="M199.412 34.7219H171.137V19.3402H189.299L199.412 27.4598V34.7317V34.7219ZM159.04 46.8915H142.458L135.097 39.7236V37.7067H159.04V46.8915ZM168.163 16.362V34.7284H162.014V28.5251H106.134V22.2113H103.169V46.8948H70.1194V31.5033H97.14V28.5251H70.1194V22.2113H67.1547V49.873H106.134V40.4024L115.325 31.5033H159.04V34.7154H132.142V49.8665H162.014V37.7067H168.172V49.873H171.137V37.7067H202.374V16.3555L168.163 16.362Z" fill="#F2F2F2"/>
<path d="M223.172 3.15723H213.294V57.3375H223.172V3.15723Z" fill="#F2F2F2"/>
<path d="M230.846 6.92146V4.82986H239.366V3.15723H243.518V4.82986H252.034V6.92146H243.518V8.17512H251.202V16.9442H246.04L252.028 21.5432V25.7361L243.511 19.221V25.7361H239.366V19.221L230.849 25.7361V21.5562L236.84 16.9572H231.678V8.18811H239.366V6.92146H230.846ZM235.817 14.8656H239.366V13.612H235.817V14.8656ZM247.034 14.8656V13.612H243.514V14.8656H247.034ZM235.817 10.2667V11.5204H239.366V10.2667H235.817ZM247.034 10.2667H243.514V11.5204H247.047L247.034 10.2667Z" fill="#F2F2F2"/>
<path d="M254.799 7.33718V5.24883H262.915V3.15723H267.067V5.24883H275.168V7.33718H254.799ZM256.044 16.9572V8.18811H273.906V16.9572H267.051V21.9751C267.051 24.4825 265.943 25.7361 263.728 25.7361H261.028V23.6478C262.276 23.6478 262.899 23.0902 262.899 21.9751V16.9572H256.044ZM260.199 14.8656H269.751V10.2667H260.199V14.8656ZM254.392 25.7361L257.296 17.7919H261.448L258.544 25.7361H254.392ZM275.577 25.7361H271.413L268.509 17.7919H272.658L275.561 25.7361H275.577Z" fill="#F2F2F2"/>
<path d="M278.752 5.66387V3.57227H298.272V5.66062H290.588V23.6471H299.104V25.7354H277.919V23.6471H286.436V5.66387H278.752Z" fill="#F2F2F2"/>
<path d="M301.456 25.7358V22.3905L308.585 18.6295H301.456V16.5379H309.972V15.9143H302.701V13.8195H309.972V13.1927H301.872V11.1011H305.195L304.366 8.59375H301.872V6.49565H303.533L302.701 3.15039H306.65L307.479 6.49565H307.895V3.15689H311.84V6.49565H312.273V3.15689H316.218V6.49565H316.634L317.434 3.15689H321.379L320.563 6.49565H322.225V8.58725H319.731L318.902 11.0946H322.225V13.1862H314.124V13.813H321.392V15.9143H314.124V16.5412H322.641V18.6328H315.498L322.631 22.3938V25.739L314.124 21.2408V25.7358H309.972V21.2408L301.456 25.7358ZM314.531 11.1011L315.36 8.59375H308.724L309.556 11.1011H314.531Z" fill="#F2F2F2"/>
<path d="M324.993 9.84775V7.75615H332.851L334.961 3.15723H339.529L337.435 7.75615H346.19V9.84775H337.883L346.593 25.7361H341.819L334.928 13.193L329.151 25.7361H324.58L331.883 9.84775H324.993Z" fill="#F2F2F2"/>
<path d="M348.945 12.3417V6.92112H369.298V12.3417H365.143V11.7279L362.239 16.119H369.714V18.2106H361.823V21.5558C361.823 24.3425 360.716 25.7358 358.501 25.7358H355.597V23.6474C356.98 23.6474 357.671 22.9502 357.671 21.5558V18.2106H348.536V16.119H357.671L359.607 13.1959H351.436V12.3417H348.945ZM350.19 6.49565L348.945 3.15039H352.681L353.929 6.49565H350.19ZM357.665 6.49565L356.42 3.15039H360.159L361.404 6.49565H357.665ZM368.049 6.49565H364.314L365.559 3.15039H369.298L368.049 6.49565ZM365.146 9.00297H353.1V11.0946H365.146V9.00297Z" fill="#F2F2F2"/>
<path d="M237.979 55.4502H231.333V53.3586H235.072C236.732 53.3586 237.563 52.6614 237.563 51.267V42.0692H230.501V39.9776H245.453V42.0692H241.718V51.267C241.718 54.058 240.471 55.4524 237.979 55.4502ZM231.749 35.7977V33.7061H244.205V35.7977H231.749ZM245.766 38.3959L244.105 36.5836L245.766 34.7389L247.428 36.5836L245.766 38.3959ZM249.157 38.3959L247.495 36.5836L249.157 34.7389L250.818 36.5836L249.157 38.3959Z" fill="#F2F2F2"/>
<path d="M262.932 55.4502H253.379V53.3586H259.831C261.631 53.3586 262.531 52.6614 262.531 51.267V37.0512H266.683V51.267C266.683 54.0579 265.437 55.4523 262.944 55.4502H262.932ZM252.55 35.7976V33.706H259.609V35.7976H252.55ZM252.55 41.6437V39.5585H259.609V41.6501L252.55 41.6437ZM264.206 36.1808L262.544 34.3685L264.206 32.5205L265.867 34.3685L264.206 36.1808ZM267.599 36.1808L265.938 34.3685L267.599 32.5205L269.261 34.3685L267.599 36.1808Z" fill="#F2F2F2"/>
<path d="M274.251 55.4503V53.3587H276.329C277.991 53.3587 278.821 52.5229 278.819 50.8514V42.4882H274.251C274.251 44.9956 272.866 46.2492 270.096 46.2492H268.022V44.1706H268.435C269.545 44.1706 270.096 43.612 270.096 42.498V32.8682H274.251V34.9598H282.961V50.8514C282.961 53.9173 281.854 55.4503 279.639 55.4503H274.251ZM278.819 37.0514H274.251V40.3966H278.819V37.0514Z" fill="#F2F2F2"/>
<path d="M284.636 55.4503L286.297 34.5408H290.449L288.788 55.4503H284.636ZM291.281 55.4503V32.8682H295.433V53.3587H295.849C296.956 53.3587 297.511 52.6637 297.511 51.2671V46.6682H301.666V51.2671C301.666 54.0581 300.419 55.4525 297.927 55.4503H291.281Z" fill="#F2F2F2"/>
<path d="M303.672 38.724V35.3787L309.692 32.8682L315.715 35.3787V38.724L311.769 37.1001V38.724H315.298V46.5188H308.201V47.0936H315.298V55.4568H305.75V53.7842H303.672L304.501 38.7305H307.617V37.1066L303.672 38.7305V38.724ZM316.144 50.0167V34.9598H319.883V50.0167H316.144ZM318.637 55.4536V53.3619H319.047C320.153 53.3619 320.708 52.8066 320.708 51.6893V33.2871H324.854V51.6861C324.854 54.1977 323.609 55.4525 321.118 55.4503L318.637 55.4536ZM307.701 37.0546H311.714L309.692 36.2134L307.685 37.0514L307.701 37.0546ZM308.566 40.8188L308.495 41.6535H311.16V40.8188H308.566ZM308.392 43.6055L308.356 44.4434H311.16V43.6055H308.392ZM309.914 53.349H311.16V49.1787H309.914V53.349Z" fill="#F2F2F2"/>
<path d="M333.438 55.4503H329.286V44.0537L327.209 48.3408V42.9039L331.777 32.8682H334.68L333.435 35.4469L333.438 55.4503ZM340.916 55.4503H336.761V42.0693L333.857 47.9153V39.9777L337.18 32.8682H341.332L340.087 35.3787H348.403V37.4703H340.929V40.8156H347.987V42.9039H340.929V46.2492H347.987V48.3408H340.929V55.4503H340.916Z" fill="#F2F2F2"/>
<path d="M350.745 55.4503V33.2871H371.927V55.4503H367.775V35.3787H354.897V55.4503H350.745ZM355.729 38.724V36.6324H366.943V38.724H355.729ZM356.145 51.2671V39.9776H366.527V51.2671H356.145ZM359.881 49.1787H362.784V42.0692H359.881V49.1787Z" fill="#F2F2F2"/>
<path d="M383.834 35.3784V33.2868H394.634L392.141 41.2472H395.88V43.3388H391.725V51.283C391.725 54.074 390.617 55.4684 388.402 55.4662H385.911V53.3746C387.018 53.3746 387.573 52.6796 387.573 51.283V43.3226H383.418V41.2472H387.986L389.821 35.4012L383.834 35.3784ZM375.124 55.45V53.3584H376.785C378.445 53.3584 379.277 52.5226 379.279 50.8511V50.0164L374.295 48.7627L374.617 37.4733H373.891V35.3817H374.653L374.721 32.8711H378.459L378.392 35.3817H383.027V48.8666L384.276 49.1914V51.2798L383.027 50.955C383.004 53.9538 381.896 55.4521 379.705 55.45H375.124ZM379.279 37.47H378.343L378.066 47.6097L379.279 47.9345V37.47Z" fill="#F2F2F2"/>
<path d="M398.231 46.2525V44.1706H418.584V46.2622H407.37L404.145 53.3684H412.935L411.103 47.5224H415.671L418.161 55.4665H398.641L402.793 46.2687L398.231 46.2525ZM400.309 42.4882V40.3966H416.506V42.4882H400.309ZM397.815 40.8156V37.4703L408.406 32.8682L418.997 37.4703V40.8156L408.406 36.2134L397.815 40.8156Z" fill="#F2F2F2"/>
</g>
<defs>
<clipPath id="clip0">
<rect width="419" height="59" fill="white"/>
</clipPath>
</defs>
</svg>
