<svg width="350" height="39" viewBox="0 0 350 39" fill="none" xmlns="http://www.w3.org/2000/svg">
<g style="mix-blend-mode:multiply" opacity="0.3">
<path d="M350 35.817L343.962 26.6169H341.695L332.108 26.6334L336.924 19.3347L339.88 23.8472H342.143L336.947 15.9326L329.245 27.5088H331.529L342.264 27.4905L346.117 33.3705H317.826L311.222 23.3107L325.779 23.2915H326.385L331.238 15.9352H330.316L306.368 15.9204H304.115L315.551 33.3731H309.936L298.447 15.91L294.327 15.9274L297.092 20.1246L289.778 31.2218L282.465 20.0828L285.206 15.91H281.087L269.591 33.3679L262.924 23.214L267.734 15.9239H265.512L261.802 21.4982L258.139 15.9196V15.9309L258.133 15.9196L246.627 33.3679H240.939L252.418 15.9239H251.642L234.27 15.9074L234.846 16.7783L247.729 16.7914L237.951 31.6363L219.963 4.33034H257.261L258.872 1.8916H214.248L236.565 35.8066H239.319L239.325 35.8231L239.336 35.8066H271.192H272.115L281.334 21.796L288.639 32.9446L285.206 38.1495H287.489L289.772 34.6743L292.049 38.1495H294.326L290.911 32.9454L298.221 21.8387L307.423 35.8092H347.717V35.817H350ZM328.415 16.8402L324.702 22.4205L310.65 22.4388L306.966 16.8271L328.415 16.8402ZM258.134 19.3486L260.667 23.214L257.345 28.2082H259.635L261.794 24.9342L267.32 33.3679H248.902L258.134 19.3486Z" fill="black"/>
</g>
<path d="M348.858 34.0749L342.82 24.8747H340.554L330.967 24.8913L335.782 17.5925L338.738 22.105H341.001L335.806 14.1904L328.104 25.7666H330.387L341.123 25.7483L344.975 31.6283H316.684L310.08 21.5685L324.637 21.5493H325.243L330.096 14.1931H329.181L305.233 14.1783H302.974L314.41 31.6309H308.795L297.305 14.1678L293.186 14.1852L295.95 18.3825L288.636 29.4796L281.323 18.3407L284.067 14.1713H279.945L268.45 31.6257L261.779 21.4718L266.588 14.1817H264.367L260.656 19.756L256.993 14.1774V14.1887L256.987 14.1774L245.485 31.6257H239.797L251.276 14.1817H250.5L233.129 14.1652L233.704 15.0362L246.587 15.0492L236.809 29.8942L218.821 2.58815H256.121L257.732 0.149414H213.106L235.423 34.0644H238.176L238.182 34.081L238.193 34.0644H270.05H270.973L280.194 20.0513L287.499 31.1998L284.067 36.4047H286.344L288.627 32.9295L290.905 36.4047H293.182L289.772 31.2033L297.082 20.0966L306.284 34.067H346.578V34.0749H348.858ZM327.273 15.098L323.56 20.6784L309.508 20.6967L305.824 15.0849L327.273 15.098ZM256.992 17.6064L259.525 21.4718L256.203 26.466H258.493L260.652 23.192L266.178 31.6257H247.76L256.992 17.6064Z" fill="white"/>
<g style="mix-blend-mode:multiply" opacity="0.3">
<path d="M174.156 18.0101H191.013L181.71 32.1313L175.814 23.256H173.561L182.647 36.9791L195.133 18.004H205.086L205.741 17.0965H195.729L201.793 7.88151L207.688 16.7855H209.965L200.857 3.06588V3.06152L191.611 17.0982L173.398 17.1025H172.478L150.888 17.1078H148.604L161.697 36.9748L161.704 36.9643V36.9748L174.156 18.0101ZM171.879 18.0101L161.699 33.551L151.479 18.0162L171.879 18.0101Z" fill="black"/>
</g>
<path d="M173.014 16.2679H189.872L180.567 30.3891L174.673 21.5138H172.419L181.505 35.237L193.991 16.2618H203.945L204.6 15.3543H194.588L200.652 6.13933L206.546 15.0433H208.824L199.716 1.32369V1.31934L190.469 15.356L172.257 15.3604H171.332L149.741 15.3656H147.463L160.555 35.2326L160.562 35.2222V35.2326L173.014 16.2679ZM170.737 16.2679L160.557 31.8088L150.342 16.274L170.737 16.2679Z" fill="white"/>
<g style="mix-blend-mode:multiply" opacity="0.3">
<path d="M32.8811 14.172L43.0202 29.6171L38.173 36.9768H122.737L145.054 3.06445H140.945L131.693 17.1107L109.686 17.0968H107.432L118.862 34.5407H92.1224L112.89 3.06445H110.635L89.8462 34.5381H80.6144L71.194 20.1887L91.3123 20.1583L85.1975 29.3488H87.4807L94.1206 19.2829H91.899L70.6272 19.3143L69.167 17.0942H66.9136L78.3442 34.5381H72.6562L61.2048 17.0942V17.1055L61.1979 17.0942L49.6929 34.5381H43.9086L64.6206 3.06445H60.5109L44.1597 27.8873L34.0127 12.4484L40.1742 3.06445H37.9189L32.8811 10.7291L27.8433 3.06445H25.589L31.7514 12.451L21.6014 27.8873L5.25024 3.06445H1.1416L23.4577 36.9768H27.5882L22.741 29.6171L32.8811 14.172ZM131.095 18.0156L120.672 33.8361L110.281 18.0026L131.095 18.0156ZM61.1959 20.5188L70.382 34.5416H51.9671L61.1959 20.5188Z" fill="black"/>
</g>
<path d="M31.7435 12.4298L41.8786 27.8749L37.0314 35.2347H121.596L143.915 1.32227H139.805L130.553 15.3685L108.546 15.3546H106.293L117.722 32.7985H90.9808L111.752 1.32227H109.497L88.7046 32.7959H79.4728L70.0603 18.4466L90.1787 18.4161L84.0569 27.6066H86.34L92.98 17.5407H90.7564L69.4846 17.5721L68.0254 15.3502H65.772L77.2075 32.7959H71.5195L60.0632 15.352V15.3633L60.0563 15.352L48.5513 32.7959H42.767L63.479 1.32227H59.3693L43.0181 26.1451L32.8711 10.7062L39.0326 1.32227H36.7773L31.7435 8.98687L26.7017 1.32227H24.4454L30.6078 10.7088L20.4598 26.1451L4.10864 1.32227H0L22.3131 35.2347H26.4436L21.5964 27.8749L31.7435 12.4298ZM129.958 16.2735L119.535 32.0939L109.14 16.2604L129.958 16.2735ZM60.0543 18.7767L69.2404 32.7994H50.8255L60.0543 18.7767Z" fill="white"/>
</svg>
