<svg id="ad309726-a69f-488a-a71d-7f9c8ed8b540"
  xmlns="http://www.w3.org/2000/svg" viewBox="0 0 3388.82 416.28">
  <defs>
    <style>.a2757f0d-b19e-4de2-8e14-61c1e8f7be81{fill:#fff;}</style>
  </defs>
  <path class="a2757f0d-b19e-4de2-8e14-61c1e8f7be81" d="M3357.41,357.09h-22.83v0l-96.58.19,48.51-83.8,29.78,51.81h22.8l-52.34-90.86h0v0l-77.59,132.92h23v0l108.15-.21,38.81,67.5h-285l-66.53-115.5,129.93-.19h.09l16.63,0h0l6.1,0,48.89-84.46H3220l-241.25-.17H2956l115.2,200.38h-56.57L2898.91,234.17l-41.51.19,27.85,48.19-73.68,127.38L2737.9,282l27.64-47.86h-41.49L2608.21,434.61h0L2541.06,318l48.44-83.71h-22.38l-37.38,64-36.9-64.06,0,.13-.06-.13L2376.87,434.61h-57.3l115.64-200.29h-7.82l-175-.19,5.8,10,129.78.14-98.5,170.44L2108.26,101.21H2484l16.22-28H2050.69L2275.5,462.6h27.74l.06.19.11-.19h320.92l9.3.05,92.89-160.89,73.59,128-34.57,59.76h22.94l23-39.9,22.94,39.9h22.95L2823,429.75l73.64-127.51,92.7,160.4h405.92l.05.08h22.95Zm-372.69-112.4,216.07.16-37.4,64.06-141.56.21ZM2399.79,434.61l93-161L2518.27,318l-33.47,57.34h23.07l21.75-37.58,55.67,96.83Z" transform="translate(-29.43 -73.22)"/>
  <path class="a2757f0d-b19e-4de2-8e14-61c1e8f7be81" d="M1922.78,152.2h0v0l-74.28,128.52-146.4.05h-7.38l-173.5.06h-18.3l105.2,182,.06-.1,0,.1,100-173.69,135.47,0-74.77,129.36-47.36-81.31h-18.11l73,125.68h0L1876.79,289l80,0,5.27-8.31-80.45,0,48.72-84.39,47.37,81.54H1996l-73.19-125.65ZM1608.13,431.42,1526,289.16l163.92-.06Z" transform="translate(-29.43 -73.22)"/>
  <path class="a2757f0d-b19e-4de2-8e14-61c1e8f7be81" d="M1344.6,234.49l-221.71-.16h-22.7l115.14,200.29H946L1155.18,73.22h-22.73L923,434.61h-93l-94.9-164.76,202.66-.34L876.25,375h22.94l66.89-115.56H943.7l-214.29.37-14.7-25.52H692L807.16,434.61h-57.3L634.5,234.32l0,.13-.07-.13L518.53,434.61H460.26L668.91,73.22H627.52l-164.72,285L360.57,181,422.64,73.22H399.92l-50.75,88-50.75-88H275.69L337.77,181,235.54,358.24,70.82,73.22H29.43L254.24,462.6h41.61L247,378.11,349.17,200.78,451.31,378.11,402.48,462.6h851.9L1479.19,73.22H1437.8ZM541.45,434.61l93-161,92.54,161Zm692.15-8.07L1128.89,244.75l209.69.15Z" transform="translate(-29.43 -73.22)"/>
</svg>
