<svg width="707" height="504" viewBox="0 0 707 504" fill="none" xmlns="http://www.w3.org/2000/svg">
<g opacity="0.3">
<g style="mix-blend-mode:multiply" opacity="0.3">
<g style="mix-blend-mode:multiply" opacity="0.3">
<path d="M675.788 463.441L654.736 426.825H646.835L613.41 426.891L630.199 397.841L640.505 415.801H648.395L630.282 384.301L603.429 430.374H611.389L648.818 430.302L662.249 453.704H563.616L540.591 413.666L591.344 413.59H593.455L610.375 384.312H607.163L523.672 384.253H515.816L555.684 453.714H536.11L496.054 384.211L481.692 384.28L491.33 400.985L465.831 445.152L440.336 400.819L449.891 384.211H435.532L395.452 453.693L372.21 413.281L388.977 384.267H381.232L368.296 406.452L355.525 384.249V384.294L355.504 384.249L315.39 453.693H295.56L335.581 384.267H332.874L272.31 384.201L274.317 387.667L319.232 387.719L285.143 446.802L222.43 338.124H352.466L358.083 328.418H202.506L280.312 463.4H289.912L289.933 463.465L289.971 463.4H401.035H404.253L436.394 407.638L461.862 452.009L449.891 472.725H457.851L465.81 458.893L473.75 472.725H481.689L469.78 452.012L495.265 407.808L527.347 463.41H667.828V463.441H675.788ZM600.533 387.913L587.589 410.123L538.598 410.196L525.755 387.861L600.533 387.913ZM355.508 397.897L364.34 413.281L352.757 433.158H360.741L368.268 420.127L387.534 453.693H323.322L355.508 397.897Z" fill="black"/>
</g>
<g style="mix-blend-mode:multiply" opacity="0.3">
<path d="M240.132 242.63H298.903L266.468 298.832L245.915 263.509H238.059L269.735 318.127L313.265 242.606H347.967L350.251 238.994H315.345L336.487 202.318L357.038 237.756H364.977L333.224 183.152V183.135L300.986 239.001L237.491 239.018H234.283L159.011 239.039H151.051L196.695 318.11L196.72 318.068V318.11L240.132 242.63ZM232.193 242.63L196.702 304.483L161.073 242.654L232.193 242.63Z" fill="black"/>
</g>
<g style="mix-blend-mode:multiply" opacity="0.3">
<path d="M145.845 82.3947L181.194 143.866L164.295 173.158H459.117L536.922 38.1865H522.595L490.34 94.0906L413.614 94.0351H405.758L445.606 163.462H352.382L424.786 38.1865H416.923L344.447 163.452H312.261L279.418 106.341L349.558 106.22L328.24 142.798H336.199L359.349 102.736H351.603L277.442 102.861L272.351 94.0247H264.495L304.346 163.452H284.516L244.592 94.0247V94.0698L244.568 94.0247L204.457 163.452H184.291L256.501 38.1865H242.173L185.167 136.981L149.79 75.5345L171.272 38.1865H163.409L145.845 68.6916L128.282 38.1865H120.422L141.907 75.5449L106.52 136.981L49.5137 38.1865H35.1895L112.992 173.158H127.392L110.493 143.866L145.845 82.3947ZM488.257 97.6923L451.918 160.658L415.691 97.6403L488.257 97.6923ZM244.561 107.655L276.587 163.465H212.386L244.561 107.655Z" fill="black"/>
</g>
</g>
<path d="M671.807 456.51L650.755 419.893H642.854L609.43 419.959L626.218 390.91L636.524 408.87H644.415L626.301 377.37L599.449 423.443H607.409L644.837 423.37L658.268 446.772H559.636L536.611 406.734L587.364 406.658H589.475L606.395 377.38H603.204L519.712 377.321H511.839L551.707 446.783H532.133L492.074 377.279L477.712 377.349L487.35 394.054L461.851 438.22L436.355 393.887L445.921 377.293H431.548L391.472 446.762L368.215 406.349L384.983 377.335H377.238L364.301 399.52L351.531 377.318V377.363L351.51 377.318L311.41 446.762H291.579L331.6 377.335H328.894L268.33 377.269L270.337 380.736L315.251 380.788L281.162 439.87L218.449 331.193H348.489L354.106 321.486H198.525L276.328 456.468H285.928L285.949 456.534L285.987 456.468H397.051H400.269L432.417 400.696L457.885 445.067L445.921 465.782H453.86L461.82 451.951L469.759 465.782H477.698L465.81 445.081L491.295 400.876L523.377 456.478H663.858V456.51H671.807ZM596.552 380.982L583.609 403.191L534.618 403.264L521.775 380.93L596.552 380.982ZM351.527 390.965L360.359 406.349L348.776 426.226H356.76L364.287 413.196L383.554 446.762H319.342L351.527 390.965Z" fill="white"/>
<path d="M236.151 235.698H294.923L262.485 291.9L241.934 256.576H234.078L265.755 311.194L309.285 235.673H343.986L346.271 232.061H311.365L332.507 195.386L353.057 230.824H360.996L329.243 176.219V176.202L297.006 232.068L233.511 232.085H230.285L155.013 232.106H147.07L192.715 311.177L192.739 311.135V311.177L236.151 235.698ZM228.212 235.698L192.722 297.55L157.107 235.722L228.212 235.698Z" fill="white"/>
<path d="M141.878 75.4621L177.213 136.933L160.314 166.225H455.136L532.949 31.2539H518.621L486.367 87.158L409.641 87.1025H401.785L441.632 156.529H348.402L420.819 31.2539H412.956L340.466 156.519H308.281L275.465 99.4086L345.605 99.2873L324.263 135.866H332.223L355.372 95.8034H347.62L273.458 95.9282L268.371 87.0852H260.515L300.383 156.519H280.553L240.612 87.0921V87.1372L240.587 87.0921L200.477 156.519H180.311L252.52 31.2539H238.193L181.186 130.049L145.81 68.6019L167.291 31.2539H159.428L141.878 61.759L124.301 31.2539H116.435L137.919 68.6123L102.54 130.049L45.5332 31.2539H31.209L109.001 166.225H123.401L106.502 136.933L141.878 75.4621ZM484.29 90.7597L447.952 153.725L411.71 90.7077L484.29 90.7597ZM240.58 100.722L272.607 156.533H208.405L240.58 100.722Z" fill="white"/>
</g>
</svg>
